# xmcd CD database file
#
# Track frame offsets:
#	150
#	23658
#	41328
#	59448
#	78828
#	96708
#	113343
#	132843
#	152278
#	174313
#
# Disc length: 2568 seconds
#
# Revision: 1
# Processed by: cddbd v1.5.1PL2 Copyright (c) Steve Scherf et al.
# Submitted via: CDex 1.60beta1
#
DISCID=6b0a060a
DTITLE=Angelic Quasar - 萃窮之夢
DYEAR=2006
DGENRE=Soundtrack
TTITLE0=鳳莱雀萃 -Entend Ash-
TTITLE1=Plain Asia ⇒
TTITLE2=亡き王女、儚き幻想
TTITLE3=夢幻泡影 -Phantom Ensemble-
TTITLE4=魔法少女達の百年祭 (Cane of harm mix)
TTITLE5=酔生夢死 -Border of life-
TTITLE6=Lapithae ～天空の花の都
TTITLE7=オテンバ・ヘヴン
TTITLE8=Necromans -Dance of Fantasia-
TTITLE9=Renaissance ～人形裁判
EXTD=YEAR: 2006
EXTT0=
EXTT1=
EXTT2=
EXTT3=
EXTT4=
EXTT5=
EXTT6=
EXTT7=
EXTT8=
EXTT9=
PLAYORDER=
